<svg viewBox="0 0 70 35" fill="none" xmlns="http://www.w3.org/2000/svg">
<path d="M24.4473 14.8784C25.6741 13.4441 26.8802 12.0304 28.107 10.6441C28.203 10.5675 28.315 10.513 28.4349 10.4845C28.5548 10.456 28.6795 10.4543 28.8002 10.4794C30.5815 10.9049 32.356 11.3578 34.1789 11.852V31.349L34.0472 31.4108L24.4473 14.8784Z" fill="#009688"/>
<path d="M35.4131 31.4863V11.8176C37.2707 11.351 39.1006 10.8843 40.9582 10.4451C41.0607 10.4404 41.163 10.4582 41.2577 10.4974C41.3524 10.5365 41.4371 10.596 41.5058 10.6716C42.6009 11.9069 43.6683 13.1627 44.7774 14.4118C44.9144 14.5223 45.0037 14.6804 45.0269 14.8539C45.0501 15.0274 45.0054 15.2031 44.9021 15.3451C41.8061 20.6386 38.7217 25.9343 35.6488 31.2324C35.5762 31.3223 35.4974 31.4071 35.4131 31.4863Z" fill="#009688"/>
<path d="M32.6611 33.3392C32.3145 33.3392 32.1274 33.3392 31.968 33.3392C26.0139 33.3392 20.0599 33.3392 14.1058 33.3392C13.9137 33.3683 13.7176 33.3243 13.5568 33.2161C13.3961 33.1079 13.2827 32.9435 13.2394 32.7559C12.5463 30.8823 11.7353 29.0294 10.959 27.1284C12.8027 26.1539 14.6118 25.1863 16.4348 24.2529C16.5503 24.2172 16.6724 24.2072 16.7922 24.2239C16.9121 24.2405 17.0267 24.2832 17.1279 24.349C21.7442 27.0026 26.372 29.6585 31.0114 32.3167C31.5244 32.6118 32.0234 32.9412 32.6611 33.3392Z" fill="#009688"/>
<path d="M56.145 33.3461H37.0837L37.0352 33.2363C38.0679 32.6392 39.1146 32.0353 40.1404 31.4451C44.1953 29.1255 48.257 26.8196 52.305 24.4863C52.4935 24.3576 52.7171 24.2887 52.9461 24.2887C53.1751 24.2887 53.3987 24.3576 53.5873 24.4863C55.0706 25.3167 56.5678 26.1265 58.0927 26.8676C58.6056 27.1147 58.5987 27.3343 58.4115 27.7872C57.6491 29.6059 56.9282 31.4588 56.145 33.3461Z" fill="#009688"/>
<path d="M36.5078 32.0902C39.8002 26.4353 42.9748 20.9657 46.2117 15.4618C47.9931 15.8255 49.7606 16.148 51.5281 16.5667C51.6376 16.6146 51.7335 16.6885 51.8072 16.7819C51.881 16.8752 51.9303 16.9852 51.9509 17.102C52.0826 18.9755 52.1796 20.8559 52.2559 22.7363C52.2533 22.8573 52.2233 22.9763 52.1681 23.0844C52.1129 23.1925 52.034 23.2869 51.9371 23.3608C46.9511 26.2157 41.9697 29.0546 36.993 31.8774C36.8354 31.9573 36.6734 32.0283 36.5078 32.0902Z" fill="#009688"/>
<path d="M23.4149 15.4618L32.994 31.9323L32.9039 32.0147C31.4137 31.2049 29.9234 30.3745 28.4193 29.5098C24.8704 27.451 21.3285 25.4471 17.7727 23.4363C17.6088 23.3656 17.4749 23.2406 17.394 23.0828C17.313 22.9251 17.2901 22.7443 17.3291 22.5716C17.4816 20.8078 17.5994 19.0373 17.6687 17.2735C17.6687 16.7588 17.842 16.5873 18.3272 16.4843C20.0115 16.1686 21.6889 15.7843 23.4149 15.4618Z" fill="#009688"/>
<g opacity="0.75">
<path d="M57.1777 33.6892C57.961 31.7333 58.6888 29.8872 59.4443 28.048C59.5495 27.8666 59.7205 27.7317 59.9226 27.6706C62.5981 26.9157 65.2805 26.1814 67.963 25.4471C68.0333 25.4516 68.1029 25.4631 68.1709 25.4814C67.9006 26.298 67.6441 27.101 67.3669 27.8971C66.7569 29.6676 66.1469 31.4451 65.5023 33.2088C65.433 33.401 65.1835 33.6686 65.0171 33.6686C62.4525 33.7029 59.8879 33.6892 57.1777 33.6892Z" fill="#009688"/>
<path d="M12.366 33.6961H8.14481C7.08431 33.6961 6.02381 33.6618 4.96331 33.6961C4.85372 33.7177 4.74082 33.7168 4.63157 33.6936C4.52233 33.6703 4.41905 33.6251 4.32812 33.5608C4.2372 33.4965 4.16054 33.4145 4.10289 33.3197C4.04523 33.2249 4.00781 33.1194 3.99291 33.0098C3.22353 30.6971 2.3987 28.3843 1.59466 26.0784C1.53228 25.8931 1.47683 25.7078 1.38672 25.3922L3.98598 26.0784C5.83666 26.5863 7.68734 27.0804 9.53108 27.6225C9.83877 27.7427 10.0873 27.9764 10.2242 28.2745C10.9174 29.8529 11.5273 31.4588 12.1719 33.0784C12.2412 33.25 12.2898 33.4421 12.366 33.6961Z" fill="#009688"/>
<path d="M58.7511 10.7814C59.569 13.4784 60.3314 15.9559 61.0939 18.4539L53.2198 22.949C53.1297 21.5765 53.0396 20.2451 52.9564 18.9343C52.967 18.8248 52.967 18.7145 52.9564 18.6049C52.5891 17.3147 53.1436 16.4363 54.0654 15.5716C55.6389 14.0824 57.1083 12.4627 58.7511 10.7814Z" fill="#009688"/>
<path d="M10.8272 10.7814L14.986 15.0569C15.1248 15.2273 15.2803 15.3837 15.4504 15.5235C15.9556 15.8617 16.3444 16.3446 16.5649 16.9075C16.7853 17.4704 16.827 18.0865 16.6842 18.6735C16.4901 20.0461 16.4763 21.4186 16.3862 22.9422C15.9495 22.7088 15.5544 22.4961 15.1662 22.2559L9.01119 18.7627C8.73393 18.6049 8.5052 18.4814 8.63689 18.0765C9.35776 15.7225 10.0509 13.3824 10.8272 10.7814Z" fill="#009688"/>
<path d="M26.3815 1.37254L34.1862 3.19117V11.1382C32.8554 10.8225 31.5731 10.4108 30.2561 10.2323C29.7483 10.2053 29.2664 10.002 28.895 9.65815C28.5236 9.31426 28.2864 8.85178 28.2252 8.35196C27.7261 6.12156 27.033 3.92548 26.3884 1.71568C26.3733 1.60191 26.3709 1.48682 26.3815 1.37254V1.37254Z" fill="#009688"/>
<path d="M35.4199 11.1451V3.19117L43.2454 1.37254C43.0098 2.28529 42.7949 3.14313 42.5523 4.00097C42.0671 5.7647 41.5888 7.54901 41.0551 9.29215C40.9927 9.51176 40.8125 9.81372 40.6254 9.86176C38.9203 10.2941 37.2013 10.7127 35.4199 11.1451Z" fill="#009688"/>
<path d="M45.6431 14.3294C44.4786 12.9569 43.3627 11.7284 42.2814 10.4451C42.2121 10.3565 42.1622 10.2546 42.1348 10.146C42.1073 10.0373 42.103 9.92415 42.1219 9.81372C42.8151 7.19215 43.5914 4.58431 44.34 1.97646C44.34 1.9147 44.4162 1.87352 44.4994 1.76372L49.7811 7.25391L45.6431 14.3294Z" fill="#009688"/>
<path d="M19.8174 7.25392L25.1337 1.71568C25.2654 2.12058 25.3833 2.43627 25.4734 2.75882C26.1434 5.14248 26.8134 7.52614 27.4835 9.9098C27.5028 9.97858 27.5079 10.0505 27.4983 10.1213C27.4888 10.1921 27.4649 10.2602 27.428 10.3216C26.2913 11.6392 25.1476 12.95 23.9623 14.3294L19.8174 7.25392Z" fill="#009688"/>
<path d="M1.81641 24.301L6.01682 20.8696C6.51588 20.4647 7.00107 20.0461 7.52093 19.6755C7.61039 19.6129 7.71357 19.5721 7.822 19.5566C7.93044 19.5411 8.04105 19.5513 8.14475 19.5863C10.6262 20.9588 13.0868 22.4 15.6514 23.8686C13.9117 24.7814 12.2689 25.6529 10.6123 26.5039C10.4569 26.5701 10.2834 26.5822 10.1202 26.5382C7.39616 25.8314 4.67213 25.0833 1.81641 24.301Z" fill="#009688"/>
<path d="M53.9404 23.9029L57.1497 22.0569L61.3085 19.6823C61.4206 19.582 61.5663 19.5265 61.7174 19.5265C61.8685 19.5265 62.0143 19.582 62.1264 19.6823C63.9563 21.1784 65.8 22.6539 67.6715 24.1363C67.6715 24.1363 67.6715 24.2186 67.72 24.301L62.6393 25.6735C61.6412 25.948 60.6431 26.2225 59.638 26.4627C59.3916 26.5278 59.1302 26.5085 58.8964 26.4078C57.2328 25.6392 55.6317 24.7882 53.9404 23.9029Z" fill="#009688"/>
<path d="M57.8563 10.1843C55.9363 12.099 54.0648 13.9382 52.2419 15.7843C52.1826 15.8442 52.1112 15.891 52.0323 15.9218C51.9535 15.9525 51.869 15.9665 51.7844 15.9627C50.1001 15.6402 48.4227 15.2765 46.6621 14.9333L50.7793 7.83725L57.8563 10.1843Z" fill="#009688"/>
<path d="M22.9087 14.9196C21.1759 15.2765 19.5124 15.6059 17.8488 15.949C17.7665 15.9614 17.6824 15.9562 17.6023 15.9337C17.5222 15.9112 17.4479 15.872 17.3844 15.8186C15.5129 13.9725 13.6623 12.1127 11.7354 10.1912C14.0435 9.4294 16.2685 8.69509 18.5073 7.98137C18.6023 7.9714 18.6983 7.98501 18.7866 8.02095C18.8749 8.05689 18.9528 8.11404 19.0133 8.18725C20.3095 10.3971 21.5848 12.6137 22.9087 14.9196Z" fill="#009688"/>
</g>
<path d="M30.5748 33.7167C30.5518 33.1558 30.6434 32.5962 30.8443 32.0714C31.0452 31.5465 31.3512 31.0673 31.7438 30.6624C32.1365 30.2576 32.6077 29.9354 33.1292 29.7154C33.6507 29.4954 34.2117 29.3819 34.7786 29.3819C35.3455 29.3819 35.9066 29.4954 36.4281 29.7154C36.9496 29.9354 37.4208 30.2576 37.8134 30.6624C38.2061 31.0673 38.512 31.5465 38.7129 32.0714C38.9138 32.5962 39.0055 33.1558 38.9825 33.7167H30.5748Z" fill="#009688"/>
</svg>
